<?xml version="1.0" encoding="UTF-8" standalone="no"?>
<svg
   xmlns:dc="http://purl.org/dc/elements/1.1/"
   xmlns:cc="http://creativecommons.org/ns#"
   xmlns:rdf="http://www.w3.org/1999/02/22-rdf-syntax-ns#"
   xmlns:svg="http://www.w3.org/2000/svg"
   xmlns="http://www.w3.org/2000/svg"
   viewBox="0 0 480 144"
   height="54"
   width="180"
   xml:space="preserve"
   id="svg2"
   version="1.1"><metadata
     id="metadata8"><rdf:RDF><cc:Work
         rdf:about=""><dc:format>image/svg+xml</dc:format><dc:type
           rdf:resource="http://purl.org/dc/dcmitype/StillImage" /></cc:Work></rdf:RDF></metadata><defs
     id="defs6"><clipPath
       id="clipPath20"
       clipPathUnits="userSpaceOnUse"><path
         id="path18"
         d="M 0,108 H 360 V 0 H 0 Z" /></clipPath></defs><g
     transform="matrix(1.3333333,0,0,-1.3333333,0,144)"
     id="g10"><path
       id="path12"
       style="fill:#231f20;fill-opacity:1;fill-rule:nonzero;stroke:none"
       d="M 0,0 H 360 V 108 H 0 Z" /><g
       id="g14"><g
         clip-path="url(#clipPath20)"
         id="g16"><g
           transform="translate(121.5524,28.0002)"
           id="g22"><path
             id="path24"
             style="fill:#868384;fill-opacity:1;fill-rule:nonzero;stroke:none"
             d="M 0,0 H 1.116 V 9.99 L 3.366,3.348 H 3.438 L 5.688,9.99 V 0 H 6.822 V 12.6 H 5.526 L 3.402,6.174 1.296,12.6 H 0 Z m 12.78,0 h 1.152 l 0.648,3.258 h 2.916 L 18.162,0 h 1.188 l -2.664,12.654 h -1.26 z m 1.98,4.32 1.278,6.336 1.278,-6.336 z m 13.194,-4.428 c 0.558,0 0.99,0.126 1.386,0.378 V 1.44 C 28.89,1.152 28.512,1.026 28.08,1.026 c -1.296,0 -2.34,1.566 -2.34,5.094 v 0.36 c 0,3.474 1.044,5.094 2.34,5.094 0.414,0 0.756,-0.126 1.224,-0.396 v 1.224 c -0.414,0.198 -0.72,0.306 -1.296,0.306 -1.854,0 -3.456,-1.98 -3.456,-6.228 V 6.12 c 0,-4.248 1.494,-6.228 3.402,-6.228 M 35.514,0 h 1.17 v 5.796 h 3.348 V 0 h 1.17 v 12.6 h -1.17 V 6.876 H 36.684 V 12.6 h -1.17 z m 12.294,0 h 1.17 v 12.6 h -1.17 z m 7.794,0 h 1.116 V 9.756 L 60.282,0 H 61.38 V 12.6 H 60.246 V 3.114 L 56.772,12.6 h -1.17 z M 67.878,0 H 72.36 V 1.098 H 69.048 V 5.796 H 72 v 1.098 h -2.952 v 4.608 h 3.258 V 12.6 h -4.428 z m 20.141,-0.072 h 1.188 L 91.745,12.6 h -1.17 L 88.631,2.214 86.705,12.6 H 85.499 Z M 97.793,0 h 1.17 v 12.6 h -1.17 z m 9.612,-0.126 c 1.53,0 2.718,1.098 2.718,2.808 V 2.7 c 0,1.35 -0.504,2.304 -2.088,4.248 -1.296,1.638 -1.62,2.232 -1.62,3.042 v 0.036 c 0,0.954 0.63,1.584 1.512,1.584 0.594,0 1.17,-0.216 1.854,-0.666 v 1.278 c -0.576,0.306 -1.152,0.504 -1.908,0.504 -1.476,0 -2.646,-1.134 -2.646,-2.754 V 9.936 c 0,-1.224 0.468,-1.962 2.106,-4.068 1.296,-1.674 1.62,-2.322 1.62,-3.204 V 2.646 c 0,-1.044 -0.648,-1.656 -1.602,-1.656 -0.63,0 -1.296,0.252 -2.142,0.774 v -1.26 c 0.738,-0.396 1.422,-0.63 2.196,-0.63 M 116.315,0 h 1.17 v 12.6 h -1.17 z m 10.566,-0.162 c 1.782,0 3.078,2.106 3.078,6.264 v 0.396 c 0,4.158 -1.296,6.264 -3.078,6.264 -1.782,0 -3.096,-2.106 -3.096,-6.264 V 6.102 c 0,-4.158 1.314,-6.264 3.096,-6.264 m 0,1.08 c -1.08,0 -1.908,1.638 -1.908,5.184 v 0.396 c 0,3.546 0.828,5.184 1.908,5.184 1.08,0 1.908,-1.638 1.908,-5.184 V 6.102 c 0,-3.546 -0.828,-5.184 -1.908,-5.184 M 136.169,0 h 1.116 V 9.756 L 140.849,0 h 1.098 v 12.6 h -1.134 V 3.114 l -3.474,9.486 h -1.17 z m 22.661,-0.162 c 1.782,0 3.078,2.106 3.078,6.264 v 0.396 c 0,4.158 -1.296,6.264 -3.078,6.264 -1.782,0 -3.096,-2.106 -3.096,-6.264 V 6.102 c 0,-4.158 1.314,-6.264 3.096,-6.264 m 0,1.08 c -1.08,0 -1.908,1.638 -1.908,5.184 v 0.396 c 0,3.546 0.828,5.184 1.908,5.184 1.08,0 1.908,-1.638 1.908,-5.184 V 6.102 c 0,-3.546 -0.828,-5.184 -1.908,-5.184 M 168.118,0 h 1.17 v 4.464 h 0.504 c 2.34,0.036 3.726,1.566 3.726,4.086 v 0.036 c 0,2.556 -1.458,4.014 -3.726,4.014 h -1.674 z m 1.17,5.526 v 5.994 h 0.558 c 1.53,0 2.502,-1.026 2.502,-2.97 V 8.514 c 0,-1.908 -0.918,-2.97 -2.502,-2.988 z M 180.412,0 h 1.17 v 11.502 h 1.926 V 12.6 h -5.004 v -1.098 h 1.908 z m 9.018,0 h 1.17 v 12.6 h -1.17 z m 10.872,-0.108 c 0.558,0 0.99,0.126 1.386,0.378 v 1.17 c -0.45,-0.288 -0.828,-0.414 -1.26,-0.414 -1.296,0 -2.34,1.566 -2.34,5.094 v 0.36 c 0,3.474 1.044,5.094 2.34,5.094 0.414,0 0.756,-0.126 1.224,-0.396 v 1.224 c -0.414,0.198 -0.72,0.306 -1.296,0.306 -1.854,0 -3.456,-1.98 -3.456,-6.228 V 6.12 c 0,-4.248 1.494,-6.228 3.402,-6.228 m 9.378,-0.018 c 1.53,0 2.718,1.098 2.718,2.808 V 2.7 c 0,1.35 -0.504,2.304 -2.088,4.248 -1.296,1.638 -1.62,2.232 -1.62,3.042 v 0.036 c 0,0.954 0.63,1.584 1.512,1.584 0.594,0 1.17,-0.216 1.854,-0.666 v 1.278 c -0.576,0.306 -1.152,0.504 -1.908,0.504 -1.476,0 -2.646,-1.134 -2.646,-2.754 V 9.936 c 0,-1.224 0.468,-1.962 2.106,-4.068 1.296,-1.674 1.62,-2.322 1.62,-3.204 V 2.646 c 0,-1.044 -0.648,-1.656 -1.602,-1.656 -0.63,0 -1.296,0.252 -2.142,0.774 v -1.26 c 0.738,-0.396 1.422,-0.63 2.196,-0.63" /></g><g
           transform="translate(125.3884,57.8902)"
           id="g26"><path
             id="path28"
             style="fill:#ffffff;fill-opacity:1;fill-rule:nonzero;stroke:none"
             d="M 0,0 H 2.992 L 9.218,15.51 H 5.566 L 1.54,4.664 -2.486,15.51 h -3.74 z m 18.062,-0.11 c 3.322,0 5.654,1.716 5.654,4.774 v 0.044 c 0,2.684 -1.76,3.806 -4.884,4.62 -2.662,0.682 -3.322,1.012 -3.322,2.024 v 0.044 c 0,0.748 0.682,1.342 1.98,1.342 1.298,0 2.64,-0.572 4.004,-1.518 l 1.76,2.552 c -1.562,1.254 -3.476,1.958 -5.72,1.958 -3.146,0 -5.39,-1.848 -5.39,-4.642 v -0.044 c 0,-3.058 2.002,-3.916 5.104,-4.708 2.574,-0.66 3.102,-1.1 3.102,-1.958 V 4.334 c 0,-0.902 -0.836,-1.452 -2.222,-1.452 -1.76,0 -3.212,0.726 -4.598,1.87 L 11.528,2.354 C 13.376,0.704 15.73,-0.11 18.062,-0.11 M 39.93,0.11 h 3.388 v 12.276 h 4.686 v 3.124 h -12.76 v -3.124 h 4.686 z m 12.21,0 h 11.726 v 3.014 h -8.36 v 3.234 h 7.26 v 3.014 h -7.26 v 3.124 h 8.25 V 15.51 H 52.14 Z m 23.496,-0.264 c 2.97,0 4.73,1.056 6.314,2.75 l -2.156,2.178 c -1.21,-1.1 -2.288,-1.804 -4.048,-1.804 -2.64,0 -4.466,2.2 -4.466,4.84 v 0.044 c 0,2.64 1.87,4.796 4.466,4.796 1.54,0 2.75,-0.66 3.938,-1.738 l 2.156,2.486 c -1.43,1.408 -3.168,2.376 -6.072,2.376 -4.73,0 -8.03,-3.586 -8.03,-7.964 V 7.766 c 0,-4.422 3.366,-7.92 7.898,-7.92 m 10.56,0.264 h 3.388 v 6.182 h 6.248 V 0.11 h 3.388 v 15.4 H 95.832 V 9.416 h -6.248 v 6.094 h -3.388 z m 18.259,0 h 3.344 V 9.9 l 7.458,-9.79 h 2.882 v 15.4 h -3.344 V 6.028 l -7.216,9.482 h -3.124 z m 26.4,-0.264 c 4.752,0 8.206,3.586 8.206,7.964 v 0.044 c 0,4.378 -3.41,7.92 -8.162,7.92 -4.752,0 -8.206,-3.586 -8.206,-7.964 V 7.766 c 0,-4.378 3.41,-7.92 8.162,-7.92 m 0.044,3.124 c -2.728,0 -4.664,2.2 -4.664,4.84 v 0.044 c 0,2.64 1.892,4.796 4.62,4.796 2.728,0 4.664,-2.2 4.664,-4.84 V 7.766 c 0,-2.64 -1.892,-4.796 -4.62,-4.796 m 12.716,-2.86 h 11.066 v 3.08 h -7.678 v 12.32 h -3.388 z m 21.758,-0.264 c 4.752,0 8.206,3.586 8.206,7.964 v 0.044 c 0,4.378 -3.41,7.92 -8.162,7.92 -4.752,0 -8.206,-3.586 -8.206,-7.964 V 7.766 c 0,-4.378 3.41,-7.92 8.162,-7.92 m 0.044,3.124 c -2.728,0 -4.664,2.2 -4.664,4.84 v 0.044 c 0,2.64 1.892,4.796 4.62,4.796 2.728,0 4.664,-2.2 4.664,-4.84 V 7.766 c 0,-2.64 -1.892,-4.796 -4.62,-4.796 m 20.13,-3.124 c 2.816,0 4.994,1.1 6.578,2.442 v 6.688 h -6.688 V 6.05 h 3.41 v -2.2 c -0.858,-0.616 -1.958,-0.924 -3.19,-0.924 -2.728,0 -4.664,2.068 -4.664,4.884 v 0.044 c 0,2.618 1.958,4.796 4.422,4.796 1.782,0 2.838,-0.572 4.026,-1.562 l 2.134,2.574 c -1.606,1.364 -3.278,2.112 -6.05,2.112 -4.664,0 -8.074,-3.586 -8.074,-7.964 V 7.766 c 0,-4.554 3.3,-7.92 8.096,-7.92 m 15.048,0.264 h 3.388 v 6.138 l 5.918,9.262 h -3.85 l -3.74,-6.182 -3.674,6.182 h -3.96 l 5.918,-9.328 z" /></g><path
           id="path30"
           style="fill:#868384;fill-opacity:1;fill-rule:nonzero;stroke:none"
           d="m 334.635,48.5 h -214 v 1 h 214 z" /><g
           transform="translate(47.6484,82.154)"
           id="g32"><path
             id="path34"
             style="fill:#2b88b0;fill-opacity:1;fill-rule:nonzero;stroke:none"
             d="m 0,0 c -5.215,-2.543 -9.001,-5.794 -9.001,-5.794 l 2.338,1.148 -1.454,-1.167 1.596,0.539 -3.163,-2.393 3.193,1.909 -0.969,-0.976 1.168,0.633 -1.909,-1.767 3.67,2.329 -1.434,-1.374 c 0,0 2.751,1.668 4.319,2.496 1.568,0.826 4.845,2.194 6.216,1.08 1.368,-1.111 -3.059,-7.195 -7.05,-13.126 -3.992,-5.928 -9.257,-11.247 -14.045,-18.628 -5.441,-8.387 -6.966,-14.281 -6.246,-18.21 0.526,-2.851 3.379,-4.827 7.614,-4.85 h 0.162 c 1.824,0.012 3.896,0.381 6.144,1.193 7.583,2.739 17.526,10.692 25.45,16.563 7.925,5.875 32.981,26.627 32.981,26.627 l -7.895,-5.759 4.505,4.219 -9.354,-6.756 10.723,8.866 -3.422,-2.395 2.422,2.423 -3.335,-2.222 3.165,3.049 -2.537,-1.568 8.636,6.983 -12.369,-8.892 6.498,5.444 c 0,0 -11.147,-8.054 -14.911,-10.789 -3.761,-2.737 -24.095,-17.554 -29.268,-21.275 -5.175,-3.718 -13.193,-8.529 -15.244,-6.392 -1.864,1.942 0.727,7.146 3.508,10.902 2.736,3.701 8.352,11.22 11.501,15.353 3.206,4.211 7.323,9.362 9.47,14.839 2.181,5.558 0.708,7.522 -1.069,8.66 C 9.771,1.453 8.531,1.843 6.909,1.843 5.08,1.843 2.765,1.347 0,0" /></g><g
           transform="translate(83.2167,54.3464)"
           id="g36"><path
             id="path38"
             style="fill:#ffffff;fill-opacity:1;fill-rule:nonzero;stroke:none"
             d="m 0,0 c -1.537,3.136 -4.788,2.273 -6.292,1.53 -1.507,-0.742 -3.759,-2.757 -6.121,-3.539 -2.54,-0.844 -4.874,0.598 -4.19,4.049 0.683,3.449 5.471,8.209 7.609,10.632 2.139,2.423 5.22,6.301 5.22,6.301 -0.625,0.621 -5.677,-3.085 -9.404,-6.264 -0.325,1.08 -1.326,1.873 -2.512,1.873 -1.45,0 -2.623,-1.175 -2.623,-2.623 0,-1.113 0.692,-2.062 1.669,-2.444 -2.855,-2.888 -5.021,-5.913 -5.605,-9.272 -0.683,-3.936 0.486,-6.415 2.566,-7.386 2.081,-0.969 3.899,-0.524 5.212,-0.146 1.42,0.411 4.345,2.509 5.793,1.059 0.879,-0.878 1.225,-2.421 -2.739,-7.21 -3.961,-4.79 -10.516,-9.523 -10.516,-9.523 0,0 2.849,1.74 4.931,3.05 2.081,1.313 6.812,4.39 11.829,8.98 C -0.155,-6.344 1.54,-3.136 0,0" /></g></g></g></g></svg>