<?xml version="1.0" encoding="UTF-8"?>
<!DOCTYPE svg PUBLIC "-//W3C//DTD SVG 1.1//EN" "http://www.w3.org/Graphics/SVG/1.1/DTD/svg11.dtd">
<!-- Creator: CorelDRAW X6 -->
<svg xmlns="http://www.w3.org/2000/svg" xml:space="preserve" width="Auto" height="Auto" version="1.1" style="shape-rendering:geometricPrecision; text-rendering:geometricPrecision; image-rendering:optimizeQuality; fill-rule:evenodd; clip-rule:evenodd"
viewBox="0 0 5000 1500"
 xmlns:xlink="http://www.w3.org/1999/xlink">
 <defs>
  <style type="text/css">
   <![CDATA[
    .fil0 {fill:#373435;fill-rule:nonzero}
    .fil3 {fill:#3B8CB2;fill-rule:nonzero}
    .fil1 {fill:#8A8888;fill-rule:nonzero}
    .fil2 {fill:#FEFEFE;fill-rule:nonzero}
   ]]>
  </style>
 </defs>
 <g id="Layer_x0020_1">
  <metadata id="CorelCorpID_0Corel-Layer"/>
  <polygon class="fil0" points="0,1500 5000,1500 5000,0 0,0 "/>
  <path class="fil1" d="M1688 1111l16 0 0 -139 31 92 1 0 31 -92 0 139 16 0 0 -175 -18 0 -30 89 -29 -89 -18 0 0 175zm178 0l16 0 9 -45 41 0 9 45 17 0 -37 -176 -18 0 -37 176zm28 -60l18 -88 18 88 -36 0zm183 62c8,0 14,-2 19,-5l0 -16c-6,4 -12,6 -18,6 -18,0 -33,-22 -33,-71l0 -5c0,-48 15,-71 33,-71 6,0 11,2 17,6l0 -17c-6,-3 -10,-4 -18,-4 -26,0 -48,28 -48,87l0 5c0,59 21,87 47,87zm105 -2l16 0 0 -80 47 0 0 80 16 0 0 -175 -16 0 0 80 -47 0 0 -80 -16 0 0 175zm171 0l16 0 0 -175 -16 0 0 175zm108 0l16 0 0 -136 50 136 15 0 0 -175 -16 0 0 132 -48 -132 -16 0 0 175zm171 0l62 0 0 -15 -46 0 0 -65 41 0 0 -15 -41 0 0 -64 45 0 0 -15 -62 0 0 175zm280 1l17 0 35 -176 -16 0 -27 144 -27 -144 -17 0 35 176zm136 -1l16 0 0 -175 -16 0 0 175zm134 2c21,0 38,-15 38,-39l0 0c0,-19 -7,-32 -29,-59 -18,-23 -23,-31 -23,-42l0 -1c0,-13 9,-22 21,-22 8,0 16,3 26,9l0 -18c-8,-4 -16,-7 -27,-7 -21,0 -37,16 -37,38l0 1c0,17 7,27 29,57 18,23 23,32 23,45l0 0c0,15 -9,23 -22,23 -9,0 -18,-4 -30,-11l0 17c10,6 20,9 31,9zm124 -2l16 0 0 -175 -16 0 0 175zm147 2c25,0 43,-29 43,-87l0 -5c0,-58 -18,-87 -43,-87 -25,0 -43,29 -43,87l0 5c0,58 18,87 43,87zm0 -15c-15,0 -27,-23 -27,-72l0 -5c0,-49 12,-72 27,-72 15,0 27,23 27,72l0 5c0,49 -12,72 -27,72zm129 13l16 0 0 -136 50 136 15 0 0 -175 -16 0 0 132 -48 -132 -16 0 0 175zm315 2c25,0 43,-29 43,-87l0 -5c0,-58 -18,-87 -43,-87 -25,0 -43,29 -43,87l0 5c0,58 18,87 43,87zm0 -15c-15,0 -27,-23 -27,-72l0 -5c0,-49 12,-72 27,-72 15,0 27,23 27,72l0 5c0,49 -12,72 -27,72zm129 13l16 0 0 -62 7 0c33,-1 52,-22 52,-57l0 0c0,-36 -20,-56 -52,-56l-23 0 0 175zm16 -77l0 -83 8 0c21,0 35,14 35,41l0 1c0,27 -13,41 -35,42l-8 0zm155 77l16 0 0 -160 27 0 0 -15 -70 0 0 15 27 0 0 160zm125 0l16 0 0 -175 -16 0 0 175zm151 2c8,0 14,-2 19,-5l0 -16c-6,4 -12,6 -18,6 -18,0 -33,-22 -33,-71l0 -5c0,-48 15,-71 33,-71 6,0 11,2 17,6l0 -17c-6,-3 -10,-4 -18,-4 -26,0 -48,28 -48,87l0 5c0,59 21,87 47,87zm130 0c21,0 38,-15 38,-39l0 0c0,-19 -7,-32 -29,-59 -18,-23 -23,-31 -23,-42l0 -1c0,-13 9,-22 21,-22 8,0 16,3 26,9l0 -18c-8,-4 -16,-7 -27,-7 -21,0 -37,16 -37,38l0 1c0,17 7,27 29,57 18,23 23,32 23,45l0 0c0,15 -9,23 -22,23 -9,0 -18,-4 -30,-11l0 17c10,6 20,9 31,9z"/>
  <path class="fil2" d="M1742 696l42 0 86 -215 -51 0 -56 151 -56 -151 -52 0 86 215zm251 2c46,0 79,-24 79,-66l0 -1c0,-37 -24,-53 -68,-64 -37,-9 -46,-14 -46,-28l0 -1c0,-10 9,-19 28,-19 18,0 37,8 56,21l24 -35c-22,-17 -48,-27 -79,-27 -44,0 -75,26 -75,64l0 1c0,42 28,54 71,65 36,9 43,15 43,27l0 1c0,13 -12,20 -31,20 -24,0 -45,-10 -64,-26l-28 33c26,23 58,34 91,34zm304 -3l47 0 0 -170 65 0 0 -43 -177 0 0 43 65 0 0 170zm170 0l163 0 0 -42 -116 0 0 -45 101 0 0 -42 -101 0 0 -43 115 0 0 -42 -161 0 0 214zm326 4c41,0 66,-15 88,-38l-30 -30c-17,15 -32,25 -56,25 -37,0 -62,-31 -62,-67l0 -1c0,-37 26,-67 62,-67 21,0 38,9 55,24l30 -35c-20,-20 -44,-33 -84,-33 -66,0 -112,50 -112,111l0 1c0,61 47,110 110,110zm147 -4l47 0 0 -86 87 0 0 86 47 0 0 -214 -47 0 0 85 -87 0 0 -85 -47 0 0 214zm254 0l46 0 0 -136 104 136 40 0 0 -214 -46 0 0 132 -100 -132 -43 0 0 214zm367 4c66,0 114,-50 114,-111l0 -1c0,-61 -47,-110 -113,-110 -66,0 -114,50 -114,111l0 1c0,61 47,110 113,110zm1 -43c-38,0 -65,-31 -65,-67l0 -1c0,-37 26,-67 64,-67 38,0 65,31 65,67l0 1c0,37 -26,67 -64,67zm177 40l154 0 0 -43 -107 0 0 -171 -47 0 0 214zm302 4c66,0 114,-50 114,-111l0 -1c0,-61 -47,-110 -113,-110 -66,0 -114,50 -114,111l0 1c0,61 47,110 113,110zm1 -43c-38,0 -65,-31 -65,-67l0 -1c0,-37 26,-67 64,-67 38,0 65,31 65,67l0 1c0,37 -26,67 -64,67zm280 43c39,0 69,-15 91,-34l0 -93 -93 0 0 41 47 0 0 31c-12,9 -27,13 -44,13 -38,0 -65,-29 -65,-68l0 -1c0,-36 27,-67 61,-67 25,0 39,8 56,22l30 -36c-22,-19 -46,-29 -84,-29 -65,0 -112,50 -112,111l0 1c0,63 46,110 112,110zm209 -4l47 0 0 -85 82 -129 -53 0 -52 86 -51 -86 -55 0 82 130 0 84z"/>
  <polygon class="fil1" points="1675,826 4648,826 4648,813 1675,813 "/>
  <path class="fil3" d="M662 359c-72,35 -125,80 -125,80l32 -16 -20 16 22 -7 -44 33 44 -27 -13 14 16 -9 -27 25 51 -32 -20 19c0,0 38,-23 60,-35 22,-11 67,-30 86,-15 19,15 -42,100 -98,182 -55,82 -129,156 -195,259 -76,116 -97,198 -87,253 7,40 47,67 106,67l2 0c25,0 54,-5 85,-17 105,-38 243,-149 353,-230 110,-82 458,-370 458,-370l-110 80 63 -59 -130 94 149 -123 -48 33 34 -34 -46 31 44 -42 -35 22 120 -97 -172 124 90 -76c0,0 -155,112 -207,150 -52,38 -335,244 -407,295 -72,52 -183,118 -212,89 -26,-27 10,-99 49,-151 38,-51 116,-156 160,-213 45,-58 102,-130 132,-206 30,-77 10,-104 -15,-120 -12,-7 -29,-13 -51,-13 -25,0 -58,7 -96,26z"/>
  <path class="fil2" d="M1156 745c-21,-44 -67,-32 -87,-21 -21,10 -52,38 -85,49 -35,12 -68,-8 -58,-56 9,-48 76,-114 106,-148 30,-34 73,-88 73,-88 -9,-9 -79,43 -131,87 -5,-15 -18,-26 -35,-26 -20,0 -36,16 -36,36 0,15 10,29 23,34 -40,40 -70,82 -78,129 -9,55 7,89 36,103 29,13 54,7 72,2 20,-6 60,-35 80,-15 12,12 17,34 -38,100 -55,67 -146,132 -146,132 0,0 40,-24 68,-42 29,-18 95,-61 164,-125 70,-64 93,-108 72,-152z"/>
 </g>
</svg>
